<svg xmlns="http://www.w3.org/2000/svg" xml:space="preserve" id="Layer_1" x="0" y="0" version="1.1" viewBox="0 0 32 32">
 <style type="text/css">
  .st0{opacity:0.7;}
	.st1{enable-background:new    ;}
	
		.st2{fill-rule:evenodd;clip-rule:evenodd;fill:url(#SVGID_1_);stroke:#888A85;stroke-width:0.2689;stroke-linecap:round;stroke-linejoin:round;stroke-miterlimit:1.0756;stroke-opacity:0.9924;}
	
		.st3{fill:none;stroke:url(#SVGID_2_);stroke-width:0.3003;stroke-linecap:round;stroke-linejoin:round;stroke-miterlimit:2.5404;stroke-opacity:0.9924;}
	.st4{opacity:0.1205;fill-rule:evenodd;clip-rule:evenodd;enable-background:new    ;}
	.st5{fill-rule:evenodd;clip-rule:evenodd;fill:url(#SVGID_3_);}
	.st6{fill:none;stroke:url(#SVGID_4_);stroke-width:0.5536;stroke-linecap:round;stroke-miterlimit:2.6667;}
	.st7{fill:none;stroke:url(#SVGID_5_);stroke-width:0.5536;stroke-linecap:round;stroke-miterlimit:2.6667;}
	.st8{fill:none;stroke:url(#SVGID_6_);stroke-width:0.5536;stroke-linecap:round;stroke-miterlimit:2.6667;}
	.st9{fill:none;stroke:url(#SVGID_7_);stroke-width:0.5536;stroke-linecap:round;stroke-miterlimit:2.6667;}
	.st10{fill:none;stroke:url(#SVGID_8_);stroke-width:0.5536;stroke-linecap:round;stroke-miterlimit:2.6667;}
	
		.st11{fill-rule:evenodd;clip-rule:evenodd;fill:url(#SVGID_9_);stroke:#888A85;stroke-width:0.2689;stroke-linecap:round;stroke-linejoin:round;stroke-miterlimit:1.0756;stroke-opacity:0.9924;}
	
		.st12{fill:none;stroke:url(#SVGID_10_);stroke-width:0.3003;stroke-linecap:round;stroke-linejoin:round;stroke-miterlimit:2.5404;stroke-opacity:0.9924;}
	.st13{fill-rule:evenodd;clip-rule:evenodd;fill:url(#SVGID_11_);}
	.st14{fill:none;stroke:url(#SVGID_12_);stroke-width:0.5536;stroke-linecap:round;stroke-miterlimit:2.6667;}
	.st15{fill:none;stroke:url(#SVGID_13_);stroke-width:0.5536;stroke-linecap:round;stroke-miterlimit:2.6667;}
	.st16{fill:none;stroke:url(#SVGID_14_);stroke-width:0.5536;stroke-linecap:round;stroke-miterlimit:2.6667;}
	.st17{fill:none;stroke:url(#SVGID_15_);stroke-width:0.5536;stroke-linecap:round;stroke-miterlimit:2.6667;}
	.st18{fill:none;stroke:url(#SVGID_16_);stroke-width:0.5536;stroke-linecap:round;stroke-miterlimit:2.6667;}
	.st19{opacity:0.7;fill:url(#SVGID_17_);stroke:url(#SVGID_18_);stroke-width:0.5772;enable-background:new    ;}
	
		.st20{opacity:0.19;fill-rule:evenodd;clip-rule:evenodd;fill:url(#SVGID_19_);stroke:url(#SVGID_20_);stroke-width:0.795;enable-background:new    ;}
	.st21{opacity:0.7;fill:url(#SVGID_21_);stroke:url(#SVGID_22_);stroke-width:0.5772;enable-background:new    ;}
	
		.st22{opacity:0.19;fill-rule:evenodd;clip-rule:evenodd;fill:url(#SVGID_23_);stroke:url(#SVGID_24_);stroke-width:0.795;enable-background:new    ;}
	.st23{fill:#AAAAAA;}
 </style>
 <g class="st0" transform="translate(23.4 24.87)">
  <g class="st1" transform="matrix(.6351 0 0 .6351 -6.855 1.584)">
   <linearGradient id="SVGID_1_" x1="63.173" x2="60.138" y1="462.477" y2="430.549" gradientTransform="matrix(0.5378 0 0 0.5198 -20.1626 -221.6089)" gradientUnits="userSpaceOnUse">
    <stop style="stop-color:#D3D7CF" offset="0"/>
    <stop style="stop-color:#FFFFFF" offset="1"/>
   </linearGradient>
   <path class="st2" d="M2.9-12.9h17.5c1.1,0,1.9,0.8,1.9,1.9V4.6c0,1-0.9,1.9-1.9,1.9H2.9C1.8,6.4,1,5.6,1,4.6V-11 C1-12.1,1.8-12.9,2.9-12.9z"/>
   <linearGradient id="SVGID_2_" x1="26.624" x2="28.966" y1="374.066" y2="389.251" gradientTransform="matrix(0.5762 0 0 0.5612 -4.6535 -219.142)" gradientUnits="userSpaceOnUse">
    <stop style="stop-color:#FFFFFF" offset="0"/>
    <stop style="stop-color:#FFFFFF;stop-opacity:0" offset="1"/>
   </linearGradient>
   <path class="st3" d="M3.1-12.2c-0.8,0-1.4,0.6-1.4,1.4V4.5c0,0.8,0.6,1.4,1.4,1.4h17.1c0.8,0,1.4-0.6,1.4-1.4v-15.3 c0-0.8-0.6-1.4-1.4-1.4H3.1z"/>
   <path class="st4" d="M3.9-12.1h16.6c1.4,0,2.5,1.1,2.5,2.5V5c0,1.4-1.1,2.5-2.5,2.5H3.9C2.5,7.5,1.4,6.4,1.4,5V-9.6 C1.4-11,2.5-12.1,3.9-12.1z"/>
  </g>
  <g transform="translate(-50.61 107.7)">
   <linearGradient id="SVGID_3_" x1="188.303" x2="188.303" y1="283.72" y2="288.92" gradientTransform="matrix(0.602 0 0 0.6014 -62.4082 -279.8567)" gradientUnits="userSpaceOnUse">
    <stop style="stop-color:#2E3436" offset="0"/>
    <stop style="stop-color:#555753" offset="1"/>
   </linearGradient>
   <path class="st5" d="M50.4-111.3c-0.4,0-0.6,0.3-0.6,0.6v0.2c0,0.2-0.1,0.3-0.3,0.3h-0.9c-0.4,0-0.6,0.4-0.6,0.7v3.6 c0,0.4,0.3,0.6,0.6,0.6h4.7c0.4,0,0.6-0.3,0.6-0.6v-3.6c0-0.4-0.3-0.7-0.6-0.7h-0.9c-0.1,0-0.3-0.1-0.3-0.3v-0.2 c0-0.4-0.3-0.6-0.6-0.6H50.4z"/>
   <g>
    <linearGradient id="SVGID_4_" x1="211.465" x2="211.585" y1="314.421" y2="301.421" gradientTransform="matrix(0.5536 0 0 0.5536 -65.9948 -278.7899)" gradientUnits="userSpaceOnUse">
     <stop style="stop-color:#FFFFFF" offset="0"/>
     <stop style="stop-color:#FFFFFF;stop-opacity:0" offset="1"/>
    </linearGradient>
    <path class="st6" d="M50.5-111.7c-0.6,0-1.1,0.5-1.1,1.1h-0.5c-0.6,0-1.2,0.5-1.2,1.2v3.3c0,0.6,0.5,1.2,1.2,1.2h4.4 c0.6,0,1.2-0.5,1.2-1.2v-3.3c0-0.6-0.5-1.2-1.2-1.2h-0.5c0-0.6-0.5-1.1-1.1-1.1H50.5z"/>
    <g>
     <linearGradient id="SVGID_5_" x1="208.264" x2="208.264" y1="312.715" y2="310.095" gradientTransform="matrix(0.5536 0 0 0.5536 -65.9948 -279.3234)" gradientUnits="userSpaceOnUse">
      <stop style="stop-color:#EDD400" offset="0"/>
      <stop style="stop-color:#EDD400;stop-opacity:0" offset="1"/>
     </linearGradient>
     <path class="st7" d="M49.3-106.7v-1.1"/>
     <linearGradient id="SVGID_6_" x1="210.251" x2="210.251" y1="312.715" y2="310.095" gradientTransform="matrix(0.5536 0 0 0.5536 -65.9948 -279.3234)" gradientUnits="userSpaceOnUse">
      <stop style="stop-color:#EDD400" offset="0"/>
      <stop style="stop-color:#EDD400;stop-opacity:0" offset="1"/>
     </linearGradient>
     <path class="st8" d="M50.4-106.7v-1.1"/>
     <linearGradient id="SVGID_7_" x1="212.418" x2="212.418" y1="312.715" y2="310.095" gradientTransform="matrix(0.5536 0 0 0.5536 -65.9948 -279.3234)" gradientUnits="userSpaceOnUse">
      <stop style="stop-color:#EDD400" offset="0"/>
      <stop style="stop-color:#EDD400;stop-opacity:0" offset="1"/>
     </linearGradient>
     <path class="st9" d="M51.6-106.7v-1.1"/>
     <linearGradient id="SVGID_8_" x1="214.405" x2="214.405" y1="312.715" y2="310.095" gradientTransform="matrix(0.5536 0 0 0.5536 -65.9948 -279.3234)" gradientUnits="userSpaceOnUse">
      <stop style="stop-color:#EDD400" offset="0"/>
      <stop style="stop-color:#EDD400;stop-opacity:0" offset="1"/>
     </linearGradient>
     <path class="st10" d="M52.7-106.7v-1.1"/>
    </g>
   </g>
  </g>
 </g>
 <g class="st0" transform="translate(-23.42 -24.88)">
  <g class="st1" transform="matrix(.6351 0 0 .6351 16.55 26.45)">
   <linearGradient id="SVGID_9_" x1="158.103" x2="155.068" y1="439.964" y2="408.036" gradientTransform="matrix(0.5378 0 0 0.5198 -58.921 -196.8464)" gradientUnits="userSpaceOnUse">
    <stop style="stop-color:#D3D7CF" offset="0"/>
    <stop style="stop-color:#FFFFFF" offset="1"/>
   </linearGradient>
   <path class="st11" d="M15.2,0.2h17.5c1.1,0,1.9,0.8,1.9,1.9v15.6c0,1-0.9,1.9-1.9,1.9H15.2c-1.1,0-1.9-0.8-1.9-1.9V2 C13.3,1,14.1,0.2,15.2,0.2z"/>
   <linearGradient id="SVGID_10_" x1="121.58" x2="123.922" y1="351.548" y2="366.733" gradientTransform="matrix(0.5762 0 0 0.5612 -47.0607 -193.4471)" gradientUnits="userSpaceOnUse">
    <stop style="stop-color:#FFFFFF" offset="0"/>
    <stop style="stop-color:#FFFFFF;stop-opacity:0" offset="1"/>
   </linearGradient>
   <path class="st12" d="M15.4,0.8c-0.8,0-1.4,0.6-1.4,1.4v15.3c0,0.8,0.6,1.4,1.4,1.4h17.1c0.8,0,1.4-0.6,1.4-1.4V2.2 c0-0.8-0.6-1.4-1.4-1.4C32.5,0.8,15.4,0.8,15.4,0.8z"/>
   <path class="st4" d="M16.2,0.9h16.6c1.4,0,2.5,1.1,2.5,2.5V18c0,1.4-1.1,2.5-2.5,2.5H16.2c-1.4,0-2.5-1.1-2.5-2.5V3.5 C13.7,2.1,14.8,0.9,16.2,0.9z"/>
  </g>
  <g transform="translate(-27 132.9)">
   <linearGradient id="SVGID_11_" x1="234.828" x2="234.828" y1="283.72" y2="288.92" gradientTransform="matrix(0.602 0 0 0.6014 -82.6163 -271.6734)" gradientUnits="userSpaceOnUse">
    <stop style="stop-color:#2E3436" offset="0"/>
    <stop style="stop-color:#555753" offset="1"/>
   </linearGradient>
   <path class="st13" d="M58.2-103.1c-0.4,0-0.6,0.3-0.6,0.6v0.2c0,0.2-0.1,0.3-0.3,0.3h-0.9c-0.4,0-0.6,0.4-0.6,0.7v3.6 c0,0.4,0.3,0.6,0.6,0.6h4.7c0.4,0,0.6-0.3,0.6-0.6v-3.6c0-0.4-0.3-0.7-0.6-0.7h-0.9c-0.1,0-0.3-0.1-0.3-0.3v-0.2 c0-0.4-0.3-0.6-0.6-0.6H58.2z"/>
   <g>
    <linearGradient id="SVGID_12_" x1="257.819" x2="257.939" y1="314.411" y2="301.411" gradientTransform="matrix(0.5536 0 0 0.5536 -83.9562 -270.6066)" gradientUnits="userSpaceOnUse">
     <stop style="stop-color:#FFFFFF" offset="0"/>
     <stop style="stop-color:#FFFFFF;stop-opacity:0" offset="1"/>
    </linearGradient>
    <path class="st14" d="M58.2-103.5c-0.6,0-1.1,0.5-1.1,1.1h-0.5c-0.6,0-1.2,0.5-1.2,1.2v3.3c0,0.6,0.5,1.2,1.2,1.2H61 c0.6,0,1.2-0.5,1.2-1.2v-3.3c0-0.6-0.5-1.2-1.2-1.2h-0.5c0-0.6-0.5-1.1-1.1-1.1H58.2z"/>
    <g>
     <linearGradient id="SVGID_13_" x1="254.798" x2="254.798" y1="312.715" y2="310.095" gradientTransform="matrix(0.5536 0 0 0.5536 -83.9562 -271.14)" gradientUnits="userSpaceOnUse">
      <stop style="stop-color:#EDD400" offset="0"/>
      <stop style="stop-color:#EDD400;stop-opacity:0" offset="1"/>
     </linearGradient>
     <path class="st15" d="M57.1-98.5v-1.1"/>
     <linearGradient id="SVGID_14_" x1="256.785" x2="256.785" y1="312.715" y2="310.095" gradientTransform="matrix(0.5536 0 0 0.5536 -83.9562 -271.14)" gradientUnits="userSpaceOnUse">
      <stop style="stop-color:#EDD400" offset="0"/>
      <stop style="stop-color:#EDD400;stop-opacity:0" offset="1"/>
     </linearGradient>
     <path class="st16" d="M58.2-98.5v-1.1"/>
     <linearGradient id="SVGID_15_" x1="258.772" x2="258.772" y1="312.715" y2="310.095" gradientTransform="matrix(0.5536 0 0 0.5536 -83.9562 -271.14)" gradientUnits="userSpaceOnUse">
      <stop style="stop-color:#EDD400" offset="0"/>
      <stop style="stop-color:#EDD400;stop-opacity:0" offset="1"/>
     </linearGradient>
     <path class="st17" d="M59.3-98.5v-1.1"/>
     <linearGradient id="SVGID_16_" x1="260.759" x2="260.759" y1="312.715" y2="310.095" gradientTransform="matrix(0.5536 0 0 0.5536 -83.9562 -271.14)" gradientUnits="userSpaceOnUse">
      <stop style="stop-color:#EDD400" offset="0"/>
      <stop style="stop-color:#EDD400;stop-opacity:0" offset="1"/>
     </linearGradient>
     <path class="st18" d="M60.4-98.5v-1.1"/>
    </g>
   </g>
  </g>
 </g>
 <g transform="matrix(0 -.9224 1.009 0 24.4 48.33)">
  <linearGradient id="SVGID_17_" x1="-418.202" x2="-412.312" y1="-171.04" y2="-171.04" gradientTransform="matrix(0 -0.6205 0.6204 0 140.4535 -259.6397)" gradientUnits="userSpaceOnUse">
   <stop style="stop-color:#FFFFFF" offset="0"/>
   <stop style="stop-color:#FFFFFF;stop-opacity:0" offset="1"/>
  </linearGradient>
  <linearGradient id="SVGID_18_" x1="-418.202" x2="-412.311" y1="-171.04" y2="-171.04" gradientTransform="matrix(0 -0.6205 0.6204 0 140.4535 -259.6397)" gradientUnits="userSpaceOnUse">
   <stop style="stop-color:#8F9388" offset="0"/>
   <stop style="stop-color:#C6CAC2" offset=".5"/>
   <stop style="stop-color:#D3D7CF;stop-opacity:0" offset="1"/>
  </linearGradient>
  <rect class="st19" width="1.9" height="2.9" x="33.3" y="-1.6" transform="matrix(-2.535182e-06 -1 1 -2.535182e-06 34.4157 34.1234)"/>
  <linearGradient id="SVGID_19_" x1="-430.048" x2="-430.048" y1="93.253" y2="93.253" gradientTransform="matrix(0.6205 0 0 0.6204 301.1945 -57.9575)" gradientUnits="userSpaceOnUse">
   <stop style="stop-color:#FFFFFF" offset="0"/>
   <stop style="stop-color:#FFFFFF;stop-opacity:0" offset="1"/>
  </linearGradient>
  <linearGradient id="SVGID_20_" x1="-430.048" x2="-424.159" y1="93.158" y2="93.158" gradientTransform="matrix(0.6205 0 0 0.6204 301.1945 -57.9575)" gradientUnits="userSpaceOnUse">
   <stop style="stop-color:#8F9388" offset="0"/>
   <stop style="stop-color:#C6CAC2" offset=".5"/>
   <stop style="stop-color:#D3D7CF;stop-opacity:0" offset="1"/>
  </linearGradient>
  <path class="st20" d="M32.6-0.1h3.5"/>
 </g>
 <g transform="matrix(.7991 0 0 1.024 4.522 -.2818)">
  <linearGradient id="SVGID_21_" x1="264.17" x2="270.06" y1="234.695" y2="234.695" gradientTransform="matrix(0.4257 0 0 0.6991 -99.4352 -156.0214)" gradientUnits="userSpaceOnUse">
   <stop style="stop-color:#FFFFFF" offset="0"/>
   <stop style="stop-color:#FFFFFF;stop-opacity:0" offset="1"/>
  </linearGradient>
  <linearGradient id="SVGID_22_" x1="264.172" x2="270.063" y1="234.695" y2="234.695" gradientTransform="matrix(0.4257 0 0 0.6991 -99.4352 -156.0214)" gradientUnits="userSpaceOnUse">
   <stop style="stop-color:#8F9388" offset="0"/>
   <stop style="stop-color:#C6CAC2" offset=".5"/>
   <stop style="stop-color:#D3D7CF;stop-opacity:0" offset="1"/>
  </linearGradient>
  <rect class="st21" width="3.5" height="1.5" x="13.2" y="7.3"/>
  <linearGradient id="SVGID_23_" x1="264.17" x2="270.06" y1="234.623" y2="234.623" gradientTransform="matrix(0.4257 0 0 0.6991 -99.4352 -156.0214)" gradientUnits="userSpaceOnUse">
   <stop style="stop-color:#FFFFFF" offset="0"/>
   <stop style="stop-color:#FFFFFF;stop-opacity:0" offset="1"/>
  </linearGradient>
  <linearGradient id="SVGID_24_" x1="264.17" x2="270.06" y1="234.623" y2="234.623" gradientTransform="matrix(0.4257 0 0 0.6991 -99.4352 -156.0214)" gradientUnits="userSpaceOnUse">
   <stop style="stop-color:#8F9388" offset="0"/>
   <stop style="stop-color:#C6CAC2" offset=".5"/>
   <stop style="stop-color:#D3D7CF;stop-opacity:0" offset="1"/>
  </linearGradient>
  <path class="st22" d="M13.2,8h3.5"/>
 </g>
 <path class="st23" d="M31.5,6.4c-0.6,0.3-2.6,1.3-2,2c1.1-0.1,0.4,0.4,0.2,0.9c-0.4,0.7-0.1,1.5-0.4,2.2c-1.9,2.3-0.5,2.3-0.8,4	c-0.5-0.2-0.6-0.7-0.9-1.2c-0.9-0.8-2.5,0.7-3.5,0.5c-4.2-0.3-3.1-2-4.2,0.6c-0.7,0.6,0.1-1.4-0.1-1.7c-1.8-2.6-1.6-1.7-3.3-1.5	c0.5-0.6,1.7-1,1.5-1.8c-0.1-1.9,0.8-3.4,1.7-4.9c0.4,0.2,0.7-0.6,1-1c0.4-0.4,1.2-0.3,1.7-0.6c0-0.2,0-0.3,0.2-0.3	c1.2-0.1,0.7-1.6,0.9-2.4c0.3-1,0.7,2.2,1.2,2.2c0.4,0.3,0.9,0,1.3,0.2c2.3,1.9,2.4,1.4,2.2,1.9C29.7,7.4,30,6.2,31.5,6.4z M24.2,13.8c0.9,0.1,3-0.5,2.3-1.6c-1.1-2-0.4-1.8-1-2.7C21.7,8.6,18.7,14.4,24.2,13.8z M19.2,10.1c0.7-0.1,1.6-0.3,2-0.9	c0.3-1.1,0.9-2.5,1.1-3.6C20.6,6.3,19.2,8.2,19.2,10.1z M28.3,8.2c-2.5,0.4-1.9,0.7-1.5,2.2C28,14.4,28.4,9.3,28.3,8.2z M22.5,8.8	c3.2,0,2.2-1.4,1.2-3.2C23.2,5.9,22.7,8.6,22.5,8.8L22.5,8.8z M25,5.5c0.5,1.7,0.6,2.7,1.7,2.3C28.9,7.2,25.8,5.6,25,5.5	C25,5.5,25,5.5,25,5.5z M20.1,12.4c0.1-0.4,0.5-1,0.3-1.4C18.8,11.1,19.5,12.4,20.1,12.4z"/>
</svg>
