<svg width="32" height="32" version="1.1" viewBox="0 0 48 48" xmlns="http://www.w3.org/2000/svg" xmlns:xlink="http://www.w3.org/1999/xlink"><defs><linearGradient id="linearGradient36138"><stop stop-color="#fff" offset="0"/><stop stop-color="#fff" stop-opacity="0" offset="1"/></linearGradient><linearGradient id="linearGradient7887" x1="-7.975" x2="-11.01" y1="25.36" y2="-6.568" gradientTransform="matrix(2 0 0 1.933 43.5 .5333)" gradientUnits="userSpaceOnUse"><stop stop-color="#d3d7cf" offset="0"/><stop stop-color="#fff" offset="1"/></linearGradient><linearGradient id="linearGradient7889" x1="-7.852" x2="-5.51" y1="3.755" y2="18.94" gradientUnits="userSpaceOnUse"><stop stop-color="#fff" offset="0"/><stop stop-color="#fff" stop-opacity="0" offset="1"/></linearGradient><linearGradient id="linearGradient5940"><stop stop-color="#2e3436" offset="0"/><stop stop-color="#555753" offset="1"/></linearGradient><linearGradient id="linearGradient3387"><stop stop-color="#8f9388" offset="0"/><stop stop-color="#c6cac2" offset=".5"/><stop stop-color="#d3d7cf" stop-opacity="0" offset="1"/></linearGradient><linearGradient id="linearGradient32908" x1="22.36" x2="28.25" y1="11.89" y2="11.89" gradientUnits="userSpaceOnUse" xlink:href="#linearGradient3387"/><linearGradient id="linearGradient36140" x1="22.36" x2="28.25" y1="11.89" y2="11.89" gradientUnits="userSpaceOnUse" xlink:href="#linearGradient36138"/><linearGradient id="linearGradient36952" x1="22.36" x2="28.25" y1="11.89" y2="11.89" gradientUnits="userSpaceOnUse" xlink:href="#linearGradient36138"/><filter id="filter5386-65" x="-.01972" y="-.02176" width="1.039" height="1.044" color-interpolation-filters="sRGB"><feGaussianBlur stdDeviation="0.26293105"/></filter><filter id="filter5386-2-2" x="-.01972" y="-.02176" width="1.039" height="1.044" color-interpolation-filters="sRGB"><feGaussianBlur stdDeviation="0.26293105"/></filter><linearGradient id="linearGradient7422"><stop stop-color="#edd400" offset="0"/><stop stop-color="#edd400" stop-opacity="0" offset="1"/></linearGradient><linearGradient id="linearGradient2128329" x1="32.81" x2="32.81" y1="21" y2="26.2" gradientTransform="matrix(.903 0 0 .9021 36.25 -116.5)" gradientUnits="userSpaceOnUse" xlink:href="#linearGradient5940"/><linearGradient id="linearGradient2128331" x1="28.88" x2="29" y1="29" y2="16" gradientTransform="matrix(.8304 0 0 .8304 38.39 -114.9)" gradientUnits="userSpaceOnUse" xlink:href="#linearGradient36138"/><linearGradient id="linearGradient2128333" x1="30.31" x2="30.31" y1="27.31" y2="24.69" gradientTransform="matrix(.8304 0 0 .8304 38.39 -115.7)" gradientUnits="userSpaceOnUse" xlink:href="#linearGradient7422"/><linearGradient id="linearGradient50053" x1="-7.975" x2="-11.01" y1="25.36" y2="-6.568" gradientTransform="matrix(2 0 0 1.933 43.5 .5333)" gradientUnits="userSpaceOnUse" xlink:href="#linearGradient7887"/><linearGradient id="linearGradient50055" x1="-7.852" x2="-5.51" y1="3.755" y2="18.94" gradientUnits="userSpaceOnUse" xlink:href="#linearGradient7889"/></defs><clipPath id="b"><rect x="68.78" y="-.0933" width="58.26" height="58.26" rx="2.648"/></clipPath><filter id="c" x="-.021" y="-.021" width="1.042" height="1.042" color-interpolation-filters="sRGB"><feGaussianBlur stdDeviation=".28282197"/></filter><clipPath id="h"><path d="m-6.562 24.53c-0.3877 0-0.6917 0.219-0.9062 0.469l-0.031-0.03-0.031 0.06-0.3438 0.313-4.25 1.218c-0.03 0-0.06 0.02-0.09 0.03-0.549 0.274-0.902 0.554-1.094 0.937-0.192 0.384-0.116 0.867 0.125 1.156 0.329 0.394 0.858 0.553 1.407 0.657l-0.407 0.437c-0.06 0.05-0.1 0.116-0.125 0.188-0.03 0.121-0.07 0.316-0.125 0.5-0.02 0.04-0.03 0.08-0.03 0.125v6.656c0 0.299 0.113 0.582 0.313 0.813 0.199 0.23 0.511 0.406 0.875 0.406h7.843c0.3236 0 0.6569-0.116 0.9063-0.375l4.651-4.81c0.2259-0.235 0.3437-0.539 0.3437-0.875v-6.625c0-0.335-0.1178-0.64-0.3437-0.875-0.2227-0.229-0.5504-0.375-0.874-0.375z"/></clipPath><filter id="i" x="-.03844" y="-.04352" width="1.077" height="1.087" color-interpolation-filters="sRGB"><feGaussianBlur stdDeviation=".1491362"/></filter><filter id="p" x="-.02026" y="-.02354" width="1.04" height="1.047" color-interpolation-filters="sRGB"><feGaussianBlur stdDeviation=".071069152"/></filter><filter id="x" x="-.03625" y="-.04222" width="1.071" height="1.083" color-interpolation-filters="sRGB"><feGaussianBlur stdDeviation=".16679387"/></filter><clipPath id="A"><path d="m-95.3 143.8s-4.189 3.27-8.1 6.5c-1.95 1.62-3.69 3.22-4.72 4.78-0.51 0.78-0.98 1.62-0.65 2.78 0.16 0.58 0.61 1.12 1.09 1.41 0.48 0.28 0.96 0.4 1.5 0.47 2.13 0.24 4.73-0.4 7.849-1.28 3.113-0.89 6.669-2.09 10.25-3.25 3.581-1.17 7.196-2.31 10.34-3 3.147-0.7 5.835-0.89 7.375-0.5 0.729 0.18 0.745 0.3 0.75 0.31 0 0 0.06 0.33-0.219 0.94-0.567 1.2-2.245 3.11-4.187 4.93-3.885 3.64-8.844 7.13-8.844 7.13l1.75 2.44s5.041-3.52 9.156-7.38c2.058-1.93 3.879-3.89 4.813-5.87 0.466-1 0.776-2.12 0.343-3.25-0.433-1.14-1.541-1.87-2.812-2.19-2.46-0.62-5.444-0.21-8.781 0.53-3.337 0.73-7.019 1.85-10.62 3.03-3.607 1.18-7.129 2.4-10.12 3.25-2.913 0.83-5.293 1.22-6.473 1.13 0.62-0.95 2.3-2.56 4.16-4.1 3.721-3.08 7.969-6.37 7.969-6.37z"/></clipPath><mask id="B" maskUnits="userSpaceOnUse"><rect x="-115.6" y="147" width="51.28" height="17.34" rx=".6657" fill="url(#C)" fill-rule="evenodd" stroke-width="2"/></mask><linearGradient id="C" x1="-112.3" x2="-112.3" y1="148.9" y2="164.5" gradientUnits="userSpaceOnUse"><stop offset="0"/><stop stop-color="#fff" offset=".2177"/><stop stop-color="#fff" offset=".7659"/><stop offset="1"/></linearGradient><filter id="D" x="-.0125" y="-.04971" width="1.026" height="1.099" color-interpolation-filters="sRGB"><feGaussianBlur stdDeviation="0.001 0.244"/></filter><filter id="H" x="-.395" y="-.5737" width="1.79" height="2.147" color-interpolation-filters="sRGB"><feGaussianBlur stdDeviation="2.8946329"/></filter><g transform="translate(0 -.1594)" stroke-width=".06499"><path d="m 46.8,9.8903579 c -0.9,0.4500001 -3.9,1.9500001 -3,3.0000001 1.65,-0.15 0.6,0.6 0.3,1.35 -0.6,1.05 -0.15,2.25 -0.6,3.3 -2.85,3.45 -0.75,3.45 -1.2,6 -0.75,-0.3 -0.9,-1.05 -1.35,-1.8 -1.35,-1.2 -3.75,1.05 -5.25,0.75 -6.3,-0.45 -4.65,-3 -6.3,0.9 -1.05,0.9 0.15,-2.1 -0.15,-2.55 -2.7,-3.9 -2.4,-2.55 -4.95,-2.25 0.75,-0.9 2.55,-1.5 2.25,-2.7 -0.15,-2.85 1.2,-5.1 2.55,-7.3500001 0.6,0.3 1.05,-0.9 1.5,-1.5 0.6,-0.6 1.8,-0.45 2.55,-0.9 0,-0.3 0,-0.45 0.3,-0.45 1.8,-0.15 1.05,-2.4 1.35,-3.6 0.45,-1.5 1.05,3.3 1.8,3.3 0.6,0.45 1.35,0 1.95,0.3 3.45,2.85 3.6,2.1 3.3,2.85 2.25,2.8500001 2.7,1.05 4.95,1.35 z M 35.85,20.990358 c 1.35,0.15 4.5,-0.75 3.45,-2.4 -1.65,-3 -0.6,-2.7 -1.5,-4.05 -5.7,-1.35 -10.2,7.35 -1.95,6.45 z m -7.5,-5.55 c 1.05,-0.15 2.4,-0.45 3,-1.35 0.45,-1.65 1.35,-3.75 1.65,-5.4000001 -2.55,1.05 -4.65,3.9000001 -4.65,6.7500001 z m 13.65,-2.85 c -3.75,0.6 -2.85,1.05 -2.25,3.3 1.8,6 2.4,-1.65 2.25,-3.3 z m -8.7,0.9 c 4.8,0 3.3,-2.1 1.8,-4.8000001 -0.75,0.45 -1.5,4.5000001 -1.8,4.8000001 z m 3.75,-4.9500001 c 0.75,2.5500001 0.9,4.0500001 2.55,3.4500001 3.3,-0.9 -1.35,-3.3000001 -2.55,-3.4500001 z M 29.7,18.890358 c 0.15,-0.6 0.75,-1.5 0.45,-2.1 -2.4,0.15 -1.35,2.1 -0.45,2.1 z" fill="#aaa"/></g><g transform="translate(23.4 24.87)" opacity=".7"><g transform="matrix(.6351 0 0 .6351 -6.855 1.584)" enable-background="new"><rect x="14.5" y="1.5" width="32" height="29" rx="2.877" ry="2.781" fill="url(#linearGradient50053)" fill-rule="evenodd" stroke="#888a85" stroke-dashoffset=".7" stroke-linecap="round" stroke-linejoin="round" stroke-opacity=".9924"/><path transform="matrix(2.143 0 0 2.087 44.43 -.6302)" d="m-12.5 1.498c-0.573 0-1.002 0.429-1.002 1.002v11c0 0.573 0.429 1.002 1.002 1.002h12c0.573 0 1.002-0.429 1.002-1.002v-11c0-0.573-0.429-1.002-1.002-1.002z" fill="none" stroke="url(#linearGradient50055)" stroke-dashoffset=".7" stroke-linecap="round" stroke-linejoin="round" stroke-opacity=".9924" stroke-width=".4729"/><rect transform="matrix(1.016 0 0 1.016 -.49 -.2715)" x="15.38" y="2.875" width="32" height="29" rx="3.723" ry="3.723" fill-rule="evenodd" filter="url(#filter5386-65)" opacity=".1205"/></g><g transform="translate(-50.61 107.7)"><path d="m62.04-100.7c-0.5306 0-0.9595 0.4284-0.9595 0.9585v0.239c0 0.2435-0.1904 0.4511-0.4515 0.4511h-1.298c-0.5306 0-0.9595 0.5841-0.9595 1.114v5.352c0 0.5301 0.4289 0.9585 0.9595 0.9585h7.111c0.5306 0 0.9595-0.4284 0.9595-0.9585v-5.352c0-0.5301-0.4288-1.114-0.9595-1.114h-1.298c-0.2174 0.01467-0.4515-0.1547-0.4515-0.437v-0.2531c0-0.5301-0.4289-0.9585-0.9595-0.9585z" fill="url(#linearGradient2128329)" fill-rule="evenodd" stroke-width=".8304"/><g fill="none" stroke-linecap="round"><path d="m62.11-101.3c-0.9212 0-1.648 0.754-1.713 1.661h-0.7785c-0.9625 0-1.765 0.8021-1.765 1.765v4.879c0 0.9625 0.8021 1.765 1.765 1.765h6.539c0.9625 0 1.765-0.8021 1.765-1.765v-4.879c0-0.9625-0.8021-1.765-1.765-1.765h-0.7785c-0.06462-0.9068-0.7915-1.661-1.713-1.661z" stroke="url(#linearGradient2128331)" stroke-dashoffset=".7" stroke-width=".8304"/><g stroke="url(#linearGradient2128333)" stroke-width=".8304px"><path d="m60.4-93.73v-1.661"/><path d="m62.06-93.73v-1.661"/><path d="m63.72-93.73v-1.661"/><path d="m65.38-93.73v-1.661"/></g></g></g></g><g transform="translate(-23.42 -24.88)" opacity=".7"><g transform="matrix(.6351 0 0 .6351 16.55 26.45)" enable-background="new"><rect x="14.5" y="1.5" width="32" height="29" rx="2.877" ry="2.781" fill="url(#linearGradient50053)" fill-rule="evenodd" stroke="#888a85" stroke-dashoffset=".7" stroke-linecap="round" stroke-linejoin="round" stroke-opacity=".9924"/><path transform="matrix(2.143 0 0 2.087 44.43 -.6302)" d="m-12.5 1.498c-0.573 0-1.002 0.429-1.002 1.002v11c0 0.573 0.429 1.002 1.002 1.002h12c0.573 0 1.002-0.429 1.002-1.002v-11c0-0.573-0.429-1.002-1.002-1.002z" fill="none" stroke="url(#linearGradient50055)" stroke-dashoffset=".7" stroke-linecap="round" stroke-linejoin="round" stroke-opacity=".9924" stroke-width=".4729"/><rect transform="matrix(1.016 0 0 1.016 -.49 -.2715)" x="15.38" y="2.875" width="32" height="29" rx="3.723" ry="3.723" fill-rule="evenodd" filter="url(#filter5386-2-2)" opacity=".1205"/></g><g transform="translate(-27 132.9)"><path d="m62.04-100.7c-0.5306 0-0.9595 0.4284-0.9595 0.9585v0.239c0 0.2435-0.1904 0.4511-0.4515 0.4511h-1.298c-0.5306 0-0.9595 0.5841-0.9595 1.114v5.352c0 0.5301 0.4289 0.9585 0.9595 0.9585h7.111c0.5306 0 0.9595-0.4284 0.9595-0.9585v-5.352c0-0.5301-0.4288-1.114-0.9595-1.114h-1.298c-0.2174 0.01467-0.4515-0.1547-0.4515-0.437v-0.2531c0-0.5301-0.4289-0.9585-0.9595-0.9585z" fill="url(#linearGradient2128329)" fill-rule="evenodd" stroke-width=".8304"/><g fill="none" stroke-linecap="round"><path d="m62.11-101.3c-0.9212 0-1.648 0.754-1.713 1.661h-0.7785c-0.9625 0-1.765 0.8021-1.765 1.765v4.879c0 0.9625 0.8021 1.765 1.765 1.765h6.539c0.9625 0 1.765-0.8021 1.765-1.765v-4.879c0-0.9625-0.8021-1.765-1.765-1.765h-0.7785c-0.06462-0.9068-0.7915-1.661-1.713-1.661z" stroke="url(#linearGradient2128331)" stroke-dashoffset=".7" stroke-width=".8304"/><g stroke="url(#linearGradient2128333)" stroke-width=".8304px"><path d="m60.4-93.73v-1.661"/><path d="m62.06-93.73v-1.661"/><path d="m63.72-93.73v-1.661"/><path d="m65.38-93.73v-1.661"/></g></g></g></g><g transform="matrix(0 -.9224 1.009 0 24.4 48.33)" fill="url(#linearGradient36952)" stroke="url(#linearGradient32908)"><rect x="22.65" y="10.74" width="5.314" height="2.304" opacity=".7" stroke-width=".5772"/><path d="m22.7 11.88 5.271-0.04727" fill-rule="evenodd" opacity=".19" stroke-width=".795"/></g><g transform="matrix(.7991 0 0 1.024 4.522 -.2818)" fill="url(#linearGradient36140)" stroke="url(#linearGradient32908)"><rect x="22.65" y="10.74" width="5.314" height="2.304" opacity=".7" stroke-width=".5772"/><path d="m22.7 11.88 5.271-0.04727" fill-rule="evenodd" opacity=".19" stroke-width=".795"/></g></svg>
